<svg width="25" height="25" viewBox="0 0 25 25" fill="none" xmlns="http://www.w3.org/2000/svg">
<path d="M20.1025 3.60107H5.10254C4.70471 3.60107 4.32318 3.75911 4.04188 4.04041C3.76057 4.32172 3.60254 4.70325 3.60254 5.10107V20.1011C3.60254 20.4989 3.76057 20.8804 4.04188 21.1617C4.32318 21.443 4.70471 21.6011 5.10254 21.6011H20.1025C20.5004 21.6011 20.8819 21.443 21.1632 21.1617C21.4445 20.8804 21.6025 20.4989 21.6025 20.1011V5.10107C21.6025 4.70325 21.4445 4.32172 21.1632 4.04041C20.8819 3.75911 20.5004 3.60107 20.1025 3.60107ZM20.1025 20.1011H5.10254V5.10107H20.1025V20.1011ZM9.07191 10.1317C8.93118 9.99097 8.85212 9.8001 8.85212 9.60107C8.85212 9.40205 8.93118 9.21118 9.07191 9.07045C9.21264 8.92972 9.40352 8.85066 9.60254 8.85066C9.80156 8.85066 9.99243 8.92972 10.1332 9.07045L14.8525 13.7908V11.1011C14.8525 10.9022 14.9316 10.7114 15.0722 10.5707C15.2129 10.4301 15.4036 10.3511 15.6025 10.3511C15.8015 10.3511 15.9922 10.4301 16.1329 10.5707C16.2735 10.7114 16.3525 10.9022 16.3525 11.1011V15.6011C16.3525 15.8 16.2735 15.9908 16.1329 16.1314C15.9922 16.2721 15.8015 16.3511 15.6025 16.3511H11.1025C10.9036 16.3511 10.7129 16.2721 10.5722 16.1314C10.4316 15.9908 10.3525 15.8 10.3525 15.6011C10.3525 15.4022 10.4316 15.2114 10.5722 15.0707C10.7129 14.9301 10.9036 14.8511 11.1025 14.8511H13.7922L9.07191 10.1317Z" fill="black"/>
</svg>
